<svg id="f8152498-338a-4c68-a994-57fd6e70ed65" data-name="Layer 1" xmlns="http://www.w3.org/2000/svg" viewBox="0 0 237.38 76.58"><defs><style>.b9cfc8e1-e405-4eff-85d9-3e2d99587267{fill:#231f20;}</style></defs><path class="b9cfc8e1-e405-4eff-85d9-3e2d99587267" d="M46.46,30.86h-.62L45.7,29C45,20.62,37.39,10.37,27,10.37H23.34V34.74H26A10.07,10.07,0,0,0,36.21,24.63V23.52h.91v25h-.91V46.93c0-6.37-4.43-11.08-10-11.08h-2.9V58.77c0,3.39,1,5.12,3.94,5.12h2.5v.9H0v-.9H3c3,0,4.71-.83,4.71-5.12V15.08c0-3.74-1.11-4.71-4-4.71h-3v-.9H46.46Z"/><path class="b9cfc8e1-e405-4eff-85d9-3e2d99587267" d="M100.41,64.79H68.69v-.9h4.09A2.64,2.64,0,0,0,75.62,61a6.43,6.43,0,0,0-.28-1.87L69.8,41.53H55l-2.35,7.89a21.44,21.44,0,0,0-1,5.82c0,5.74,3.53,8.65,7.41,8.65h2.42v.9h-23v-.9h1.32c5.74,0,9.83-8.79,12-15.92L64,9.4H76.65L93.83,61.19a3.71,3.71,0,0,0,3.88,2.7h2.7ZM69.52,40.56l-7.2-22.3-7.06,22.3Z"/><path class="b9cfc8e1-e405-4eff-85d9-3e2d99587267" d="M144.89,43.64c0,11.82-8.09,22.08-22.43,22.08a23.46,23.46,0,0,1-8.26-1.4l-4.43,12.26h-1.22L113.07,64c-10.17-4.09-16.6-14.69-16.6-25.73,0-14.61,11.56-28.43,27.38-28.43a24.76,24.76,0,0,1,8.35,1.31l4-11.13h1.39l-4.17,11.56c6.26,2.7,9.83,8,9.83,13.65,0,8-5.92,11.65-11.39,11.65a10.73,10.73,0,0,1-6.78-2.44L116.9,56.94c1.56,5,4.17,7,8.51,7,9.57,0,18.08-8.34,18.08-20.25Zm-13.13-31.3a15.4,15.4,0,0,0-4.17-.6c-9,0-12.35,7.73-12.35,26.51,0,7.21.27,12.6,1.13,16.6l7.74-21.3a10,10,0,0,1-2.87-6.78,10.29,10.29,0,0,1,9-10.25Zm1.22.44-1.39,3.65c4.08.17,6,2.78,6.43,2.78s.43-.09.43-.87C138.45,16.78,136.54,14.17,133,12.78Z"/><path class="b9cfc8e1-e405-4eff-85d9-3e2d99587267" d="M176.44,64.79H144.1v-.9H147c1.73,0,5.19-1.24,5.19-5v-43c0-3.33-1.94-5.54-5-5.54H144.1V9.4h32.34v.9h-3c-2.7,0-4.92,2.35-4.92,5.54V58.91c0,3.74,2.5,5,4.51,5h3.39Z"/><path class="b9cfc8e1-e405-4eff-85d9-3e2d99587267" d="M237.38,64.79H205.67v-.9h4.08A2.64,2.64,0,0,0,212.59,61a6.43,6.43,0,0,0-.28-1.87l-5.54-17.58H192l-2.36,7.89a21.83,21.83,0,0,0-1,5.82c0,5.74,3.53,8.65,7.41,8.65h2.43v.9h-23v-.9h1.31c5.75,0,9.83-8.79,12.05-15.92L201,9.4h12.67L230.8,61.19a3.71,3.71,0,0,0,3.88,2.7h2.7ZM206.5,40.56l-7.2-22.3-7.07,22.3Z"/><polygon class="b9cfc8e1-e405-4eff-85d9-3e2d99587267" points="233.34 69.64 233.36 69.64 234.51 73.02 235.33 73.02 236.52 69.64 236.54 69.64 236.54 73.02 237.38 73.02 237.38 68.78 235.93 68.78 234.94 71.55 234.91 71.55 233.96 68.78 232.5 68.78 232.5 73.02 233.34 73.02 233.34 69.64"/><polygon class="b9cfc8e1-e405-4eff-85d9-3e2d99587267" points="229.66 73.02 230.5 73.02 230.5 69.52 231.74 69.52 231.74 68.78 228.42 68.78 228.42 69.52 229.66 69.52 229.66 73.02"/></svg>